<svg xmlns="http://www.w3.org/2000/svg" viewBox="0 0 64 64" width="64" height="64"
     fill="none" stroke="#b07dfb" stroke-width="2.5" stroke-linecap="round" stroke-linejoin="round">
  <!-- orelhas -->
  <path d="M12 20 L20 8 L28 20" />
  <path d="M52 20 L44 8 L36 20" />
  <!-- contorno da cabeça / bochechas e queixo -->
  <path d="M12 20
           C12 38, 22 46, 32 52
           C42 46, 52 38, 52 20" />
  <!-- topo da cabeça -->
  <path d="M28 20 C30 18, 34 18, 36 20" />
  <!-- olhos -->
  <path d="M23 30 C25 28, 27 28, 29 30" />
  <path d="M35 30 C37 28, 39 28, 41 30" />
  <!-- focinho -->
  <path d="M28 40 C30 42, 34 42, 36 40" />
  <circle cx="32" cy="40" r="1.5" fill="#b07dfb" stroke="#b07dfb"/>
  <!-- detalhes de pelagem no queixo -->
  <path d="M28 46 L32 49 L36 46" />
</svg>